<svg xmlns="http://www.w3.org/2000/svg" direction="ltr" width="455.23778135370014" height="127.88851014310194" viewBox="792.9585323504119 2256.0336168179774 455.23778135370014 127.88851014310194" stroke-linecap="round" stroke-linejoin="round" data-color-mode="light" class="tl-container tl-theme__force-sRGB tl-theme__light" style="background-color: transparent;"><defs/><g transform="matrix(1, 0, 0, 1, 824.9585, 2351.9221)" opacity="1"><g transform="scale(1)"><path d="M-0.2272,-2.997 T4.0252,-3.1566 16.6193,-4.6871 37.5602,-9.1911 63.5606,-16.3449 87.8465,-24.0996 107.0782,-31.0472 121.3219,-36.7809 130.7976,-40.8921 136.3204,-43.3683 139.9032,-45.3418 141.5424,-46.4302 A2.0432,2.0432 0 0 1 143.6176,-42.9098 T141.7002,-41.9016 137.8313,-40.0209 132.2909,-37.509 122.7626,-33.2722 108.4345,-27.3654 89.1181,-20.1994 64.7315,-12.1609 38.545,-4.6253 17.2516,0.3792 4.4564,2.5136 0.2272,2.997 A3.0056,3.0056 0 0 1 -0.2272,-2.997 ZM143.4215,-42.8081 T141.7875,-42.1429 137.8673,-39.7828 133.3686,-36.3588 129.2242,-32.9236 125.627,-29.5326 122.5763,-26.1681 120.1552,-22.9167 118.4818,-19.9598 117.3792,-16.7603 116.9146,-14.9461 A2.3491,2.3491 0 0 1 112.3779,-16.1672 T112.6924,-17.026 113.611,-19.1747 115.0939,-21.9876 117.1554,-25.1559 119.7978,-28.6294 122.9702,-32.2705 126.6466,-35.9232 130.8516,-39.6522 135.0368,-43.0185 138.5411,-45.0705 140.92,-46.0887 141.7385,-46.5319 A2.0432,2.0432 0 0 1 143.4215,-42.8081 ZM115.4811,-17.7524 T117.1013,-17.1951 121.2948,-16.7168 127.2339,-17.4582 133.7826,-19.0453 139.4971,-20.7654 143.8147,-22.1405 147.2515,-22.7338 150.2638,-21.798 152.5465,-19.28 154.4308,-16.6766 157.124,-15.0209 161.3871,-14.2203 166.603,-14.5594 171.6801,-15.81 175.909,-17.1898 179.0918,-18.4002 182.4879,-19.6419 186.6433,-20.6071 191.4475,-20.9847 195.8939,-21.053 199.7177,-20.9026 203.7175,-20.6446 207.421,-20.3897 210.9243,-20.1406 214.2456,-19.958 217.3018,-19.8884 221.2449,-19.9198 225.1571,-19.9623 226.5865,-19.9617 A2.7019,2.7019 0 0 1 226.5335,-14.5583 T225.1044,-14.5857 221.1511,-14.723 217.1238,-14.9006 213.9567,-15.0564 210.5824,-15.2715 207.134,-15.5103 203.5323,-15.6828 199.6692,-15.716 195.9379,-15.6483 191.616,-15.6089 187.2636,-15.5905 183.6853,-15.2682 180.4384,-14.5337 177.1251,-13.4926 172.6564,-12.0244 166.8839,-10.5125 160.5211,-10.0316 154.682,-11.2276 150.6074,-13.8373 147.9543,-17.1247 144.9844,-18.3435 140.7093,-16.9725 134.8364,-15.0026 127.8301,-13.0592 121.0397,-11.9374 115.8703,-12.5194 113.8115,-13.3609 A2.3491,2.3491 0 0 1 115.4811,-17.7524 Z" stroke-linecap="round" fill="#1d1d1d"/></g></g><g transform="matrix(1, 0, 0, 1, 1026.363, 2307.1423)" opacity="1"><g transform="scale(1)"><path d="M1.812,2.6905 T1.7049,2.7727 1.5979,2.8548 A3.2605,3.2605 0 0 1 -2.0448,-2.5539 T-1.9284,-2.6222 -1.812,-2.6905 A3.2438,3.2438 0 0 1 1.812,2.6905 ZM0.5475,-3.0176 T1.5929,-2.7945 3.5384,-2.4289 4.4384,-2.2864 A3.3401,3.3401 0 0 1 3.3616,4.3064 T2.463,4.1551 0.285,3.6611 -0.9944,3.3185 A3.2605,3.2605 0 0 1 0.5475,-3.0176 Z" stroke-linecap="round" fill="#1d1d1d"/></g></g><g transform="matrix(1, 0, 0, 1, 1049.8663, 2301.0364)" opacity="1"><g transform="scale(1)"><path d="M2.5234,1.1804 T1.6292,2.9187 -0.3636,6.5343 -2.9745,10.7119 -6.0159,15.4148 -8.8312,19.9819 -11.0916,23.9583 -12.663,27.1204 -14.1337,30.2496 -15.803,33.3576 -17.4267,36.0295 -18.864,38.4392 -19.4734,39.506 A3.1543,3.1543 0 0 1 -24.9266,36.334 T-24.1501,35.2649 -22.3531,33.0273 -20.2245,30.6356 -18.1036,27.9811 -16.3433,25.2178 -14.6091,22.0246 -12.4022,17.8977 -9.7719,13.1433 -7.0863,8.3726 -4.9282,4.2553 -3.2845,0.6199 -2.5234,-1.1804 A2.7858,2.7858 0 0 1 2.5234,1.1804 ZM-24.2949,35.5618 T-22.3689,34.0028 -16.6891,29.601 -7.4578,22.5679 3.9766,13.9604 15.4334,5.7596 25.8573,-1.0138 34.7301,-6.0599 41.4706,-9.3386 46.045,-11.29 49.488,-12.5452 51.1483,-13.0715 A2.2625,2.2625 0 0 1 52.097,-8.647 T50.6528,-8.5076 47.4944,-7.7673 43.1244,-5.9527 36.6668,-2.6859 28.0932,2.3723 17.9641,9.2188 6.7948,17.5887 -4.3265,26.4744 -13.1627,33.886 -18.3973,38.6093 -20.1051,40.2782 A3.1543,3.1543 0 0 1 -24.2949,35.5618 ZM53.4132,-9.4762 T52.4997,-8.1185 50.2339,-5.5332 47.155,-2.9719 43.5132,-0.2691 39.737,2.3926 36.1357,4.8442 32.6214,7.1256 29.1678,9.3454 25.9018,11.5331 22.9493,13.6156 20.3773,15.4974 17.7308,17.6153 15.7682,19.5291 15.2462,20.2146 A2.704,2.704 0 0 1 11.3623,16.4515 T12.2795,15.6515 14.9084,13.7462 17.8834,11.8485 20.5761,10.131 23.6382,8.1201 26.9691,5.9348 30.3948,3.7204 33.7845,1.4888 37.1993,-0.9858 40.7043,-3.7922 44.001,-6.606 46.7612,-9.0808 48.9044,-11.2164 49.8321,-12.2423 A2.2625,2.2625 0 0 1 53.4132,-9.4762 ZM13.6883,15.6565 T15.2334,15.8586 19.0705,15.9915 23.8371,15.7166 28.4427,15.3247 31.9978,14.9498 35.6259,15.46 38.5602,17.6327 40.4969,18.3963 43.2346,16.9255 46.3094,15.2521 50.0316,13.5169 54.7844,12.4057 58.9737,12.2232 62.554,12.7879 66.9675,14.2492 72.2668,16.4854 78.6393,18.9683 86.517,21.3347 95.8417,23.2931 106.6367,25.04 118.4575,26.97 129.9039,28.9251 139.8853,30.6155 147.7059,31.8977 153.2943,32.707 157.2854,33.0704 161.1521,32.8584 164.6381,32.2986 165.9514,32.0271 A2.3733,2.3733 0 0 1 166.7086,36.7129 T165.3767,36.8688 161.3407,36.9908 156.9008,36.7243 152.8081,36.2115 147.141,35.4269 139.2925,34.1899 129.297,32.5654 117.8686,30.707 106.0396,28.9043 95.0374,27.2935 85.3334,25.4853 77.0755,23.3336 70.5264,21.2414 65.5097,19.6694 61.79,18.8242 57.9275,18.6055 54.017,18.939 50.8937,19.9707 47.4608,21.6643 43.2471,23.3444 38.5509,23.5927 35.4361,21.3416 32.8858,19.5255 28.9661,19.7762 24.3334,20.4747 19.2344,21.2404 14.7993,21.2988 12.9202,21.0096 A2.704,2.704 0 0 1 13.6883,15.6565 Z" stroke-linecap="round" fill="#1d1d1d"/></g></g><g transform="matrix(1, 0, 0, 1, 1142.8769, 2292.5336)" opacity="1"><g transform="scale(1)"><path d="M0.1711,-3.2158 T1.5828,-3.1745 2.9946,-3.1331 A3.2877,3.2877 0 0 1 2.6454,3.4331 T1.2372,3.3245 -0.1711,3.2158 A3.2204,3.2204 0 0 1 0.1711,-3.2158 Z" stroke-linecap="round" fill="#1d1d1d"/></g></g></svg>